<svg width="169" height="36" viewBox="0 0 169 36" fill="none" xmlns="http://www.w3.org/2000/svg">
<g id="Group 10 Copy">
<path id="Combined Shape" fill-rule="evenodd" clip-rule="evenodd" d="M11.2157 32H17.6733L6.45754 0H0L11.2157 32ZM28.6139 32H22.1563L10.9406 0H17.3981L28.6139 32ZM33.9385 32H33.6634V31.215L22.7228 0H29.1803L33.6634 12.7908V0H40.396L40.396 32H33.9385ZM50.495 0H44.604V32H50.4951H51.3366H62.2772V25.2632H51.3366V6.73684H62.2772V0H51.3366H50.495ZM67.3267 0H73.2178H74.0594H85V6.73684H74.0594V12.6316H78.2673H85V19.3684V32H79.1089H78.2673H67.3267V25.2632H78.2673V19.3684H74.0594H73.2178H67.3267V0Z" fill="white"/>
<path id="WalletCS cold storag" d="M101.641 10.1289L102.98 3.04688H105.024L102.816 13H100.752L99.1318 6.3418L97.5117 13H95.4473L93.2393 3.04688H95.2832L96.6299 10.1152L98.2705 3.04688H100.007L101.641 10.1289ZM110.062 13C109.971 12.8223 109.905 12.6012 109.864 12.3369C109.386 12.8701 108.764 13.1367 107.998 13.1367C107.273 13.1367 106.672 12.9271 106.193 12.5078C105.719 12.0885 105.482 11.5599 105.482 10.9219C105.482 10.138 105.772 9.53646 106.351 9.11719C106.934 8.69792 107.775 8.486 108.873 8.48145H109.782V8.05762C109.782 7.71582 109.693 7.44238 109.516 7.2373C109.342 7.03223 109.067 6.92969 108.688 6.92969C108.356 6.92969 108.094 7.00944 107.902 7.16895C107.715 7.32845 107.622 7.5472 107.622 7.8252H105.646C105.646 7.39681 105.779 7.00033 106.043 6.63574C106.307 6.27116 106.681 5.98633 107.164 5.78125C107.647 5.57161 108.189 5.4668 108.791 5.4668C109.702 5.4668 110.425 5.69694 110.958 6.15723C111.496 6.61296 111.765 7.25553 111.765 8.08496V11.291C111.769 11.9928 111.867 12.5238 112.059 12.8838V13H110.062ZM108.429 11.626C108.72 11.626 108.989 11.5622 109.235 11.4346C109.481 11.3024 109.664 11.127 109.782 10.9082V9.63672H109.044C108.055 9.63672 107.529 9.97852 107.465 10.6621L107.458 10.7783C107.458 11.0244 107.545 11.2272 107.718 11.3867C107.891 11.5462 108.128 11.626 108.429 11.626ZM115.367 13H113.385V2.5H115.367V13ZM119.086 13H117.104V2.5H119.086V13ZM124.124 13.1367C123.039 13.1367 122.155 12.804 121.472 12.1387C120.793 11.4733 120.453 10.5869 120.453 9.47949V9.28809C120.453 8.54525 120.597 7.88216 120.884 7.29883C121.171 6.71094 121.576 6.25977 122.101 5.94531C122.629 5.6263 123.231 5.4668 123.905 5.4668C124.917 5.4668 125.712 5.78581 126.291 6.42383C126.874 7.06185 127.166 7.96647 127.166 9.1377V9.94434H122.456C122.52 10.4274 122.711 10.8148 123.03 11.1064C123.354 11.3981 123.762 11.5439 124.254 11.5439C125.015 11.5439 125.61 11.2682 126.038 10.7168L127.009 11.8037C126.713 12.223 126.312 12.5511 125.806 12.7881C125.3 13.0205 124.739 13.1367 124.124 13.1367ZM123.898 7.06641C123.507 7.06641 123.188 7.19857 122.941 7.46289C122.7 7.72721 122.545 8.10547 122.477 8.59766H125.225V8.44043C125.215 8.00293 125.097 7.66569 124.869 7.42871C124.641 7.18717 124.318 7.06641 123.898 7.06641ZM130.659 3.78516V5.60352H131.924V7.05273H130.659V10.7441C130.659 11.0176 130.712 11.2135 130.816 11.332C130.921 11.4505 131.122 11.5098 131.418 11.5098C131.637 11.5098 131.83 11.4938 131.999 11.4619V12.959C131.612 13.0775 131.213 13.1367 130.803 13.1367C129.417 13.1367 128.711 12.4372 128.684 11.0381V7.05273H127.604V5.60352H128.684V3.78516H130.659ZM140.968 9.68457C140.89 10.7555 140.494 11.5986 139.778 12.2139C139.067 12.8291 138.129 13.1367 136.962 13.1367C135.686 13.1367 134.681 12.7083 133.947 11.8516C133.218 10.9902 132.854 9.8099 132.854 8.31055V7.70215C132.854 6.74512 133.022 5.90202 133.359 5.17285C133.697 4.44368 134.177 3.88542 134.802 3.49805C135.431 3.10612 136.16 2.91016 136.989 2.91016C138.138 2.91016 139.063 3.21777 139.765 3.83301C140.466 4.44824 140.872 5.31185 140.981 6.42383H138.931C138.881 5.78125 138.701 5.31641 138.391 5.0293C138.085 4.73763 137.618 4.5918 136.989 4.5918C136.306 4.5918 135.793 4.83789 135.451 5.33008C135.114 5.81771 134.941 6.5765 134.932 7.60645V8.3584C134.932 9.43392 135.093 10.2201 135.417 10.7168C135.745 11.2135 136.26 11.4619 136.962 11.4619C137.595 11.4619 138.067 11.3184 138.377 11.0312C138.691 10.7396 138.871 10.2907 138.917 9.68457H140.968ZM147.476 10.3887C147.476 10.0013 147.339 9.70508 147.065 9.5C146.792 9.29036 146.3 9.07161 145.589 8.84375C144.878 8.61133 144.315 8.38346 143.9 8.16016C142.77 7.54948 142.205 6.72689 142.205 5.69238C142.205 5.15462 142.355 4.67611 142.656 4.25684C142.962 3.83301 143.397 3.5026 143.962 3.26562C144.532 3.02865 145.17 2.91016 145.876 2.91016C146.587 2.91016 147.22 3.04004 147.776 3.2998C148.332 3.55501 148.763 3.91732 149.068 4.38672C149.378 4.85612 149.533 5.38932 149.533 5.98633H147.482C147.482 5.5306 147.339 5.17741 147.052 4.92676C146.765 4.67155 146.361 4.54395 145.842 4.54395C145.34 4.54395 144.951 4.65104 144.673 4.86523C144.395 5.07487 144.256 5.35286 144.256 5.69922C144.256 6.02279 144.418 6.29395 144.741 6.5127C145.069 6.73145 145.55 6.93652 146.184 7.12793C147.35 7.47884 148.2 7.91406 148.733 8.43359C149.267 8.95312 149.533 9.60026 149.533 10.375C149.533 11.2363 149.207 11.9131 148.556 12.4053C147.904 12.8929 147.027 13.1367 145.924 13.1367C145.158 13.1367 144.461 12.9977 143.832 12.7197C143.203 12.4372 142.722 12.0521 142.39 11.5645C142.062 11.0768 141.897 10.5117 141.897 9.86914H143.955C143.955 10.9674 144.611 11.5166 145.924 11.5166C146.411 11.5166 146.792 11.4186 147.065 11.2227C147.339 11.0221 147.476 10.7441 147.476 10.3887ZM96.8008 30.4463C97.3704 30.4463 97.8467 30.2868 98.2295 29.9678C98.6169 29.6442 98.8265 29.2272 98.8584 28.7168H99.6445C99.6217 29.168 99.4805 29.5804 99.2207 29.9541C98.9609 30.3232 98.6146 30.6126 98.1816 30.8223C97.7533 31.0319 97.293 31.1367 96.8008 31.1367C95.8301 31.1367 95.0599 30.7995 94.4902 30.125C93.9251 29.4505 93.6426 28.5436 93.6426 27.4043V27.1582C93.6426 26.429 93.7702 25.7842 94.0254 25.2236C94.2806 24.6631 94.6452 24.2301 95.1191 23.9248C95.5977 23.6195 96.1559 23.4668 96.7939 23.4668C97.6051 23.4668 98.2728 23.7083 98.7969 24.1914C99.3255 24.6745 99.6081 25.3102 99.6445 26.0986H98.8584C98.8219 25.5199 98.6123 25.0527 98.2295 24.6973C97.8512 24.3418 97.3727 24.1641 96.7939 24.1641C96.0557 24.1641 95.4814 24.4307 95.0713 24.9639C94.6657 25.4971 94.4629 26.2445 94.4629 27.2061V27.4453C94.4629 28.3887 94.6657 29.1247 95.0713 29.6533C95.4814 30.182 96.0579 30.4463 96.8008 30.4463ZM100.834 27.1924C100.834 26.4814 100.971 25.8411 101.244 25.2715C101.522 24.7018 101.912 24.2598 102.413 23.9453C102.919 23.6263 103.491 23.4668 104.129 23.4668C105.113 23.4668 105.911 23.8132 106.521 24.5059C107.132 25.194 107.438 26.1077 107.438 27.2471V27.418C107.438 28.1335 107.299 28.7783 107.021 29.3525C106.747 29.9222 106.36 30.362 105.858 30.6719C105.357 30.9818 104.785 31.1367 104.143 31.1367C103.163 31.1367 102.365 30.7926 101.75 30.1045C101.139 29.4118 100.834 28.4958 100.834 27.3564V27.1924ZM101.654 27.418C101.654 28.3021 101.882 29.029 102.338 29.5986C102.798 30.1637 103.4 30.4463 104.143 30.4463C104.881 30.4463 105.478 30.1637 105.934 29.5986C106.394 29.029 106.624 28.2793 106.624 27.3496V27.1924C106.624 26.6273 106.519 26.11 106.31 25.6406C106.1 25.1712 105.806 24.8089 105.428 24.5537C105.049 24.2939 104.617 24.1641 104.129 24.1641C103.4 24.1641 102.805 24.4512 102.345 25.0254C101.884 25.5951 101.654 26.3424 101.654 27.2676V27.418ZM110.049 31H109.229V20.5H110.049V31ZM111.949 27.2334C111.949 26.085 112.204 25.1712 112.715 24.4922C113.23 23.8086 113.927 23.4668 114.807 23.4668C115.805 23.4668 116.566 23.861 117.09 24.6494V20.5H117.903V31H117.138L117.104 30.0156C116.579 30.763 115.809 31.1367 114.793 31.1367C113.941 31.1367 113.253 30.7949 112.729 30.1113C112.209 29.4232 111.949 28.4958 111.949 27.3291V27.2334ZM112.776 27.377C112.776 28.3203 112.965 29.0654 113.344 29.6123C113.722 30.1546 114.255 30.4258 114.943 30.4258C115.951 30.4258 116.666 29.9814 117.09 29.0928V25.6201C116.666 24.6585 115.955 24.1777 114.957 24.1777C114.269 24.1777 113.733 24.4489 113.351 24.9912C112.968 25.529 112.776 26.3242 112.776 27.377ZM127.891 29.1201C127.891 28.7145 127.727 28.3887 127.398 28.1426C127.075 27.8965 126.585 27.7051 125.929 27.5684C125.272 27.4271 124.762 27.2676 124.397 27.0898C124.037 26.9076 123.769 26.6865 123.591 26.4268C123.418 26.167 123.331 25.8525 123.331 25.4834C123.331 24.9001 123.575 24.4193 124.062 24.041C124.55 23.6582 125.174 23.4668 125.936 23.4668C126.76 23.4668 127.421 23.6719 127.918 24.082C128.419 24.4876 128.67 25.0186 128.67 25.6748H127.85C127.85 25.2419 127.667 24.8818 127.303 24.5947C126.943 24.3076 126.487 24.1641 125.936 24.1641C125.398 24.1641 124.965 24.2848 124.637 24.5264C124.313 24.7633 124.151 25.0732 124.151 25.4561C124.151 25.8252 124.286 26.1123 124.555 26.3174C124.828 26.5179 125.323 26.7025 126.038 26.8711C126.758 27.0397 127.296 27.2197 127.651 27.4111C128.011 27.6025 128.278 27.8327 128.451 28.1016C128.624 28.3704 128.711 28.6963 128.711 29.0791C128.711 29.7035 128.458 30.2025 127.952 30.5762C127.451 30.9499 126.795 31.1367 125.983 31.1367C125.122 31.1367 124.423 30.9294 123.885 30.5146C123.352 30.0954 123.085 29.5667 123.085 28.9287H123.905C123.937 29.4072 124.138 29.7809 124.507 30.0498C124.881 30.3141 125.373 30.4463 125.983 30.4463C126.553 30.4463 127.013 30.321 127.364 30.0703C127.715 29.8197 127.891 29.5029 127.891 29.1201ZM131.828 21.71V23.6035H133.359V24.2734H131.828V29.2021C131.828 29.6123 131.901 29.9176 132.047 30.1182C132.197 30.3187 132.446 30.4189 132.792 30.4189C132.929 30.4189 133.15 30.3962 133.455 30.3506L133.489 31.0205C133.275 31.098 132.983 31.1367 132.614 31.1367C132.054 31.1367 131.646 30.9749 131.391 30.6514C131.135 30.3232 131.008 29.8424 131.008 29.209V24.2734H129.647V23.6035H131.008V21.71H131.828ZM134.467 27.1924C134.467 26.4814 134.604 25.8411 134.877 25.2715C135.155 24.7018 135.545 24.2598 136.046 23.9453C136.552 23.6263 137.124 23.4668 137.762 23.4668C138.746 23.4668 139.544 23.8132 140.154 24.5059C140.765 25.194 141.07 26.1077 141.07 27.2471V27.418C141.07 28.1335 140.931 28.7783 140.653 29.3525C140.38 29.9222 139.993 30.362 139.491 30.6719C138.99 30.9818 138.418 31.1367 137.775 31.1367C136.796 31.1367 135.998 30.7926 135.383 30.1045C134.772 29.4118 134.467 28.4958 134.467 27.3564V27.1924ZM135.287 27.418C135.287 28.3021 135.515 29.029 135.971 29.5986C136.431 30.1637 137.033 30.4463 137.775 30.4463C138.514 30.4463 139.111 30.1637 139.566 29.5986C140.027 29.029 140.257 28.2793 140.257 27.3496V27.1924C140.257 26.6273 140.152 26.11 139.942 25.6406C139.733 25.1712 139.439 24.8089 139.061 24.5537C138.682 24.2939 138.249 24.1641 137.762 24.1641C137.033 24.1641 136.438 24.4512 135.978 25.0254C135.517 25.5951 135.287 26.3424 135.287 27.2676V27.418ZM146.184 24.3008C146.01 24.2689 145.826 24.2529 145.63 24.2529C145.119 24.2529 144.687 24.3965 144.331 24.6836C143.98 24.9661 143.729 25.3786 143.579 25.9209V31H142.766V23.6035H143.565L143.579 24.7793C144.012 23.9043 144.707 23.4668 145.664 23.4668C145.892 23.4668 146.072 23.4964 146.204 23.5557L146.184 24.3008ZM151.878 31C151.796 30.7676 151.743 30.4235 151.721 29.9678C151.434 30.3415 151.067 30.6309 150.62 30.8359C150.178 31.0365 149.709 31.1367 149.212 31.1367C148.501 31.1367 147.924 30.9385 147.482 30.542C147.045 30.1455 146.826 29.6442 146.826 29.0381C146.826 28.318 147.125 27.7484 147.722 27.3291C148.323 26.9098 149.16 26.7002 150.23 26.7002H151.714V25.8594C151.714 25.3307 151.55 24.916 151.222 24.6152C150.898 24.3099 150.424 24.1572 149.8 24.1572C149.23 24.1572 148.758 24.3031 148.385 24.5947C148.011 24.8864 147.824 25.2373 147.824 25.6475L147.004 25.6406C147.004 25.0527 147.277 24.5446 147.824 24.1162C148.371 23.6833 149.043 23.4668 149.841 23.4668C150.666 23.4668 151.315 23.6742 151.789 24.0889C152.268 24.499 152.514 25.0732 152.527 25.8115V29.3115C152.527 30.027 152.603 30.5625 152.753 30.918V31H151.878ZM149.308 30.4121C149.854 30.4121 150.342 30.2799 150.771 30.0156C151.203 29.7513 151.518 29.3981 151.714 28.9561V27.3291H150.251C149.435 27.3382 148.797 27.4886 148.337 27.7803C147.877 28.0674 147.646 28.4639 147.646 28.9697C147.646 29.3844 147.799 29.7285 148.104 30.002C148.414 30.2754 148.815 30.4121 149.308 30.4121ZM154.387 27.2334C154.387 26.0758 154.642 25.1598 155.152 24.4854C155.667 23.8063 156.365 23.4668 157.244 23.4668C158.251 23.4668 159.017 23.8678 159.541 24.6699L159.582 23.6035H160.348V30.8496C160.348 31.8021 160.081 32.5563 159.548 33.1123C159.015 33.6683 158.292 33.9463 157.381 33.9463C156.866 33.9463 156.374 33.8301 155.904 33.5977C155.439 33.3698 155.073 33.0645 154.804 32.6816L155.262 32.1895C155.84 32.9004 156.529 33.2559 157.326 33.2559C158.01 33.2559 158.543 33.0531 158.926 32.6475C159.309 32.2464 159.507 31.6882 159.521 30.9727V30.043C158.996 30.7721 158.233 31.1367 157.23 31.1367C156.374 31.1367 155.686 30.7949 155.166 30.1113C154.646 29.4277 154.387 28.5049 154.387 27.3428V27.2334ZM155.214 27.377C155.214 28.3203 155.403 29.0654 155.781 29.6123C156.16 30.1546 156.693 30.4258 157.381 30.4258C158.388 30.4258 159.101 29.9746 159.521 29.0723V25.6338C159.329 25.1598 159.053 24.7998 158.693 24.5537C158.333 24.3031 157.9 24.1777 157.395 24.1777C156.706 24.1777 156.171 24.4489 155.788 24.9912C155.405 25.529 155.214 26.3242 155.214 27.377ZM165.345 31.1367C164.716 31.1367 164.146 30.9818 163.636 30.6719C163.13 30.362 162.736 29.9313 162.453 29.3799C162.171 28.8239 162.029 28.2018 162.029 27.5137V27.2197C162.029 26.5088 162.166 25.8685 162.439 25.2988C162.717 24.7292 163.103 24.2826 163.595 23.959C164.087 23.6309 164.62 23.4668 165.194 23.4668C166.092 23.4668 166.803 23.7744 167.327 24.3896C167.856 25.0003 168.12 25.8366 168.12 26.8984V27.3564H162.843V27.5137C162.843 28.3522 163.082 29.0518 163.561 29.6123C164.044 30.1683 164.65 30.4463 165.379 30.4463C165.816 30.4463 166.201 30.3665 166.534 30.207C166.871 30.0475 167.177 29.7923 167.45 29.4414L167.963 29.8311C167.361 30.7015 166.489 31.1367 165.345 31.1367ZM165.194 24.1641C164.579 24.1641 164.06 24.3896 163.636 24.8408C163.216 25.292 162.961 25.8981 162.87 26.6592H167.307V26.5703C167.284 25.8594 167.081 25.2806 166.698 24.834C166.315 24.3874 165.814 24.1641 165.194 24.1641Z" fill="white"/>
</g>
</svg>
