<svg width="140" height="20" viewBox="0 0 140 20" fill="none" xmlns="http://www.w3.org/2000/svg">
<path d="M15.7832 12.6096L17.9491 1.02178H22.4623L18.4548 19.5014H13.7341L11.2052 8.96701L8.72811 19.5014H4.02038L0 1.02178H4.52617L6.69199 12.6096L9.28578 1.02178H13.1505L15.7832 12.6096Z" fill="white"/>
<path d="M34.3937 16.0492H28.1556L27.0662 19.5014H22.2029L29.1283 1.02178H33.4081L40.3854 19.5014H35.4961L34.3937 16.0492ZM29.245 12.6096H33.3043L31.2682 6.20014L29.245 12.6096Z" fill="white"/>
<path d="M46.3252 16.0746H54.2492V19.5014H41.773V1.02178H46.3252V16.0746Z" fill="white"/>
<path d="M60.7207 16.0746H68.6447V19.5014H56.1686V1.02178H60.7207V16.0746Z" fill="white"/>
<path d="M82.2751 11.6704H75.1163V16.0746H83.572V19.5014H70.5642V1.02178H83.598V4.46133H75.1163V8.35779H82.2751V11.6704Z" fill="white"/>
<path d="M100.509 4.46133H94.8421V19.5014H90.2899V4.46133H84.7263V1.02178H100.509V4.46133Z" fill="white"/>
<path d="M123.555 13.2442C123.495 14.5304 123.14 15.6684 122.492 16.6584C121.843 17.6399 120.931 18.4014 119.755 18.943C118.588 19.4845 117.252 19.7552 115.748 19.7552C113.267 19.7552 111.313 18.9641 109.886 17.3818C108.459 15.7996 107.746 13.5658 107.746 10.6804V9.76661C107.746 7.95587 108.066 6.3736 108.706 5.01978C109.354 3.6575 110.284 2.60829 111.494 1.87215C112.705 1.12755 114.105 0.755249 115.696 0.755249C117.987 0.755249 119.829 1.34754 121.221 2.53214C122.613 3.70827 123.404 5.33285 123.594 7.40588H119.055C119.021 6.28052 118.731 5.47246 118.186 4.9817C117.642 4.49094 116.811 4.24556 115.696 4.24556C114.564 4.24556 113.734 4.66017 113.206 5.48938C112.679 6.3186 112.402 7.6428 112.376 9.462V10.7693C112.376 12.7408 112.627 14.1496 113.128 14.9957C113.638 15.8419 114.512 16.2649 115.748 16.2649C116.794 16.2649 117.594 16.0238 118.147 15.5415C118.701 15.0592 118.995 14.2934 119.029 13.2442H123.555Z" fill="white"/>
<path d="M135.448 14.5896C135.448 13.9381 135.21 13.4304 134.735 13.0665C134.268 12.7027 133.442 12.3262 132.258 11.9369C131.073 11.5477 130.105 11.1712 129.352 10.8074C126.906 9.63122 125.682 8.0151 125.682 5.95899C125.682 4.93516 125.985 4.03403 126.59 3.25558C127.204 2.46868 128.069 1.85946 129.184 1.42793C130.299 0.987937 131.553 0.767941 132.945 0.767941C134.302 0.767941 135.517 1.00486 136.589 1.4787C137.67 1.95253 138.509 2.62944 139.105 3.50942C139.702 4.38094 140 5.37939 140 6.50475H135.461C135.461 5.75169 135.223 5.16785 134.748 4.75325C134.281 4.33864 133.645 4.13133 132.841 4.13133C132.028 4.13133 131.384 4.30902 130.909 4.6644C130.442 5.01132 130.208 5.45554 130.208 5.99707C130.208 6.4709 130.468 6.90243 130.987 7.29166C131.505 7.67242 132.417 8.0701 133.723 8.48471C135.029 8.89085 136.101 9.33084 136.939 9.80468C138.98 10.9554 140 12.5419 140 14.5642C140 16.1803 139.377 17.4495 138.132 18.3718C136.887 19.2941 135.18 19.7552 133.01 19.7552C131.479 19.7552 130.092 19.4887 128.847 18.9556C127.61 18.4141 126.677 17.678 126.045 16.7472C125.423 15.808 125.112 14.7292 125.112 13.5108H129.677C129.677 14.5007 129.936 15.2326 130.455 15.7065C130.982 16.1719 131.834 16.4045 133.01 16.4045C133.762 16.4045 134.354 16.248 134.786 15.9349C135.227 15.6134 135.448 15.165 135.448 14.5896Z" fill="white"/>
</svg>
