<svg width="52" height="34" viewBox="0 0 52 34" fill="none" xmlns="http://www.w3.org/2000/svg">
<path d="M0 5.00078V28.7545C0 31.5163 2.23893 33.7553 5.00078 33.7553H46.8823C49.6442 33.7553 51.8831 31.5163 51.8831 28.7545V5.00078C51.8831 2.23893 49.6442 0 46.8823 0H5.00078C2.23893 0 0 2.23893 0 5.00078Z" fill="white"/>
<path d="M30.0048 13.7522C30.0048 10.2999 32.4836 7.50122 35.5413 7.50122H49.3828V26.2542H35.5413C32.4836 26.2542 30.0048 23.4555 30.0048 20.0032V13.7522Z" fill="white"/>
<path d="M51.8834 7.5012H30.0049C27.5883 7.5012 25.6292 9.46026 25.6292 11.8769V22.5035C25.6292 24.9202 27.5883 26.8792 30.0049 26.8792H51.8677M51.8677 27.5043H30.0049C27.2431 27.5043 25.0042 25.2654 25.0042 22.5035V11.8769C25.0042 9.11502 27.2431 6.8761 30.0049 6.8761H51.8834" stroke="#5B9BD5" stroke-width="2"/>
<path fill-rule="evenodd" clip-rule="evenodd" d="M44.4634 16.8776C44.1182 16.8776 43.8423 16.5964 43.8004 16.2537C43.5179 13.9456 41.688 12.1158 39.3799 11.8332C39.0372 11.7913 38.756 11.5154 38.756 11.1702V10.6267C38.756 10.2814 39.0368 9.99858 39.3806 10.0295C42.6797 10.3266 45.307 12.9539 45.6041 16.253C45.635 16.5968 45.3522 16.8776 45.007 16.8776H44.4634Z" fill="#5B9BD5"/>
<path fill-rule="evenodd" clip-rule="evenodd" d="M38.1309 11.1702C38.1309 11.5154 37.8497 11.7913 37.507 11.8332C35.1989 12.1158 33.3691 13.9456 33.0865 16.2537C33.0446 16.5964 32.7687 16.8776 32.4235 16.8776H31.8799C31.5347 16.8776 31.2519 16.5968 31.2828 16.253C31.5799 12.9539 34.2072 10.3266 37.5063 10.0295C37.8501 9.99858 38.1309 10.2814 38.1309 10.6267V11.1702Z" fill="#5B9BD5"/>
<path fill-rule="evenodd" clip-rule="evenodd" d="M38.756 23.2102C38.756 22.8649 39.0372 22.5891 39.3799 22.5471C41.688 22.2646 43.5179 20.4347 43.8004 18.1267C43.8423 17.784 44.1182 17.5027 44.4634 17.5027H45.007C45.3522 17.5027 45.635 17.7835 45.6041 18.1274C45.307 21.4265 42.6797 24.0538 39.3806 24.3508C39.0368 24.3818 38.756 24.099 38.756 23.7537V23.2102Z" fill="#5B9BD5"/>
<path fill-rule="evenodd" clip-rule="evenodd" d="M32.4235 17.5027C32.7687 17.5027 33.0446 17.784 33.0865 18.1267C33.3691 20.4347 35.1989 22.2646 37.507 22.5471C37.8497 22.5891 38.1309 22.8649 38.1309 23.2102V23.7537C38.1309 24.099 37.8501 24.3818 37.5063 24.3508C34.2072 24.0538 31.5799 21.4265 31.2828 18.1274C31.2519 17.7835 31.5347 17.5027 31.8799 17.5027H32.4235Z" fill="#5B9BD5"/>
<path fill-rule="evenodd" clip-rule="evenodd" d="M38.4434 18.7529C39.3065 18.7529 40.0062 18.0532 40.0062 17.1901C40.0062 16.3271 39.3065 15.6274 38.4434 15.6274C37.5804 15.6274 36.8807 16.3271 36.8807 17.1901C36.8807 18.0532 37.5804 18.7529 38.4434 18.7529ZM38.4434 20.0031C39.997 20.0031 41.2564 18.7437 41.2564 17.1901C41.2564 15.6366 39.997 14.3772 38.4434 14.3772C36.8899 14.3772 35.6305 15.6366 35.6305 17.1901C35.6305 18.7437 36.8899 20.0031 38.4434 20.0031Z" fill="#5B9BD5"/>
</svg>
